<svg width="20" height="23" viewBox="0 0 20 23" fill="none" xmlns="http://www.w3.org/2000/svg">
<path d="M6.74999 17.5V18.3125C6.74999 19.1745 7.0924 20.0011 7.7019 20.6106C8.31139 21.2201 9.13804 21.5625 9.99999 21.5625C10.8619 21.5625 11.6886 21.2201 12.2981 20.6106C12.9076 20.0011 13.25 19.1745 13.25 18.3125V17.5M2.70809 8.56244C2.70674 7.59882 2.89613 6.64447 3.26534 5.75439C3.63455 4.86431 4.17628 4.05611 4.8593 3.37637C5.54232 2.69663 6.35312 2.1588 7.24496 1.79388C8.13681 1.42895 9.09206 1.24416 10.0557 1.25014C14.0765 1.28003 17.2927 4.62215 17.2927 8.65424V9.37494C17.2927 13.0125 18.0537 15.1233 18.724 16.2769C18.7962 16.4002 18.8346 16.5403 18.8354 16.6832C18.8361 16.8261 18.7992 16.9666 18.7283 17.0906C18.6574 17.2147 18.5551 17.3178 18.4316 17.3897C18.3082 17.4615 18.1679 17.4996 18.0251 17.4999H1.97487C1.83199 17.4996 1.69174 17.4615 1.56825 17.3897C1.44477 17.3178 1.34243 17.2146 1.27156 17.0905C1.20068 16.9665 1.16377 16.8259 1.16456 16.683C1.16535 16.5402 1.20381 16.4 1.27605 16.2768C1.9467 15.1231 2.70808 13.0123 2.70808 9.37494L2.70809 8.56244Z" stroke="#213773" stroke-linecap="round" stroke-linejoin="round"/>
</svg>
