<svg width="24" height="24" viewBox="0 0 24 24" fill="none" xmlns="http://www.w3.org/2000/svg">
<path d="M8 8H16M8 12H16M8 16H12M22.9095 15.999H16V22.909M15.5858 23H2C1.73478 23 1.48043 22.8946 1.29289 22.7071C1.10536 22.5196 1 22.2652 1 22V2C1 1.73478 1.10536 1.48043 1.29289 1.29289C1.48043 1.10536 1.73478 1 2 1H22C22.2652 1 22.5196 1.10536 22.7071 1.29289C22.8946 1.48043 23 1.73478 23 2V15.5858C23 15.7171 22.9741 15.8471 22.9239 15.9685C22.8736 16.0898 22.8 16.2 22.7071 16.2929L16.2929 22.7071C16.2 22.8 16.0898 22.8736 15.9685 22.9239C15.8471 22.9741 15.7171 23 15.5858 23Z" stroke="white" stroke-linecap="round" stroke-linejoin="round"/>
</svg>
