<svg width="26" height="26" viewBox="0 0 26 26" fill="none" xmlns="http://www.w3.org/2000/svg">
<path d="M13 17C15.7614 17 18 14.7614 18 12C18 9.23858 15.7614 7 13 7C10.2386 7 8 9.23858 8 12C8 14.7614 10.2386 17 13 17ZM13 17C11.3385 17 9.7093 17.4598 8.29292 18.3284C6.87653 19.1971 5.72814 20.4408 4.97488 21.9218M13 17C14.6615 17 16.2907 17.4598 17.7071 18.3284C19.1234 19.1971 20.2718 20.4407 21.0251 21.9217M25 13C25 19.6274 19.6274 25 13 25C6.37258 25 1 19.6274 1 13C1 6.37258 6.37258 1 13 1C19.6274 1 25 6.37258 25 13Z" stroke="#213773" stroke-linecap="round" stroke-linejoin="round"/>
</svg>
