<svg width="21" height="15" viewBox="0 0 21 15" fill="none" xmlns="http://www.w3.org/2000/svg">
<path d="M12.3455 1.11005C12.0797 1.18494 11.9249 1.46111 11.9998 1.72691C12.0747 1.9927 12.3509 2.14746 12.6167 2.07257L12.3455 1.11005ZM13.6936 10.3624L13.6932 9.86235C13.4172 9.86255 13.1935 10.0865 13.1936 10.3626C13.1937 10.6386 13.4176 10.8624 13.6937 10.8624L13.6936 10.3624ZM0.090966 13.2886C-0.0678494 13.5145 -0.013464 13.8263 0.212439 13.9851C0.438343 14.144 0.750219 14.0896 0.909034 13.8637L0.090966 13.2886ZM12.4664 13.8632C12.6252 14.0891 12.9371 14.1435 13.163 13.9847C13.3889 13.8258 13.4432 13.5139 13.2844 13.288L12.4664 13.8632ZM19.4719 13.8629C19.6306 14.0889 19.9424 14.1435 20.1684 13.9849C20.3944 13.8262 20.449 13.5144 20.2903 13.2883L19.4719 13.8629ZM11.1566 5.89359H10.6566C10.6566 8.08547 8.87972 9.86234 6.68784 9.86234V10.3623V10.8623C9.432 10.8623 11.6566 8.63775 11.6566 5.89359H11.1566ZM6.68784 10.3623V9.86234C4.49596 9.86234 2.71909 8.08547 2.71909 5.89359H2.21909H1.71909C1.71909 8.63775 3.94367 10.8623 6.68784 10.8623V10.3623ZM2.21909 5.89359H2.71909C2.71909 3.7017 4.49596 1.92484 6.68784 1.92484V1.42484V0.924835C3.94367 0.924835 1.71909 3.14942 1.71909 5.89359H2.21909ZM6.68784 1.42484V1.92484C8.87972 1.92484 10.6566 3.70171 10.6566 5.89359H11.1566H11.6566C11.6566 3.14942 9.432 0.924835 6.68784 0.924835V1.42484ZM12.4811 1.59131L12.6167 2.07257C13.1625 1.91877 13.735 1.88374 14.2956 1.96982L14.3715 1.47562L14.4474 0.981411C13.7456 0.873636 13.0289 0.9175 12.3455 1.11005L12.4811 1.59131ZM14.3715 1.47562L14.2956 1.96982C14.8562 2.05591 15.3918 2.26112 15.8663 2.57164L16.1401 2.15324L16.4139 1.73484C15.8197 1.3461 15.1492 1.08919 14.4474 0.981411L14.3715 1.47562ZM16.1401 2.15324L15.8663 2.57164C16.3409 2.88215 16.7434 3.29076 17.0468 3.76994L17.4692 3.50249L17.8917 3.23504C17.5119 2.63514 17.008 2.12359 16.4139 1.73484L16.1401 2.15324ZM17.4692 3.50249L17.0468 3.76994C17.3501 4.24912 17.5473 4.78774 17.625 5.34953L18.1202 5.28106L18.6155 5.21259C18.5183 4.50927 18.2715 3.83495 17.8917 3.23504L17.4692 3.50249ZM18.1202 5.28106L17.625 5.34953C17.7026 5.91132 17.659 6.48323 17.497 7.02674L17.9762 7.16954L18.4554 7.31235C18.6581 6.63191 18.7128 5.91592 18.6155 5.21259L18.1202 5.28106ZM17.9762 7.16954L17.497 7.02674C17.335 7.57025 17.0585 8.07274 16.6859 8.50036L17.0629 8.82879L17.44 9.15722C17.9063 8.62187 18.2526 7.99279 18.4554 7.31235L17.9762 7.16954ZM17.0629 8.82879L16.6859 8.50036C16.3134 8.92798 15.8536 9.27081 15.3374 9.50575L15.5445 9.96083L15.7517 10.4159C16.3979 10.1218 16.9736 9.69258 17.44 9.15722L17.0629 8.82879ZM15.5445 9.96083L15.3374 9.50575C14.8212 9.74069 14.2607 9.86228 13.6935 9.86235L13.6936 10.3624L13.6937 10.8624C14.4037 10.8623 15.1054 10.71 15.7517 10.4159L15.5445 9.96083ZM0.5 13.5761L0.909034 13.8637C1.56083 12.9365 2.42612 12.1799 3.43187 11.6575L3.2014 11.2138L2.97094 10.77C1.82282 11.3664 0.835029 12.2302 0.090966 13.2886L0.5 13.5761ZM3.2014 11.2138L3.43187 11.6575C4.4376 11.1351 5.55452 10.8624 6.68785 10.8623L6.68784 10.3623L6.68782 9.86234C5.39409 9.86238 4.11907 10.1737 2.97094 10.77L3.2014 11.2138ZM6.68784 10.3623L6.68785 10.8623C7.82115 10.8623 8.93758 11.1349 9.94338 11.6572L10.1738 11.2135L10.4042 10.7698C9.25609 10.1735 7.98158 9.86229 6.68782 9.86234L6.68784 10.3623ZM10.1738 11.2135L9.94338 11.6572C10.9492 12.1795 11.8145 12.9362 12.4664 13.8632L12.8754 13.5756L13.2844 13.288C12.5403 12.2297 11.5524 11.366 10.4042 10.7698L10.1738 11.2135ZM13.6936 10.3624L13.694 10.8624C14.8273 10.8615 15.9441 11.1338 16.9498 11.6561L17.1803 11.2124L17.4107 10.7686C16.2624 10.1723 14.9872 9.86141 13.6932 9.86235L13.6936 10.3624ZM17.1803 11.2124L16.9498 11.6561C17.9556 12.1784 18.8207 12.9354 19.4719 13.8629L19.8811 13.5756L20.2903 13.2883C19.5468 12.2293 18.5591 11.365 17.4107 10.7686L17.1803 11.2124Z" fill="white"/>
</svg>
