<svg width="20" height="17" viewBox="0 0 20 17" fill="none" xmlns="http://www.w3.org/2000/svg">
<path d="M16.9062 15.9321V7.69116C16.9063 7.59972 16.8871 7.5093 16.8502 7.42568C16.8132 7.34206 16.7591 7.26709 16.6915 7.20558L10.1285 1.23903C10.0077 1.12921 9.85029 1.06835 9.68703 1.06836C9.52376 1.06836 9.36636 1.12923 9.24557 1.23906L2.68352 7.20559C2.61587 7.26709 2.56182 7.34206 2.52484 7.42567C2.48785 7.50929 2.46875 7.59971 2.46875 7.69113V15.9321M0.5 15.932H18.875M11.6558 15.9314V11.3376C11.6558 11.1636 11.5866 10.9967 11.4636 10.8736C11.3405 10.7505 11.1736 10.6814 10.9995 10.6814H8.37452C8.20047 10.6814 8.03355 10.7505 7.91048 10.8736C7.78741 10.9967 7.71827 11.1636 7.71827 11.3376V15.9314" stroke="white" stroke-linecap="round" stroke-linejoin="round"/>
</svg>
